<svg xmlns="http://www.w3.org/2000/svg" viewBox="0 0 72 64" role="img" aria-labelledby="title desc">
  <title id="title">DWP geometric monogram</title>
  <desc id="desc">A custom geometric DWP monogram with a mint action terminal.</desc>
  <path
    fill="#2457D6"
    fill-rule="evenodd"
    d="M2 10h8c8.3 0 12 4.7 12 14v16c0 9.3-3.7 14-12 14H2V10Zm8 10v24h1c2.7 0 4-1.8 4-6V26c0-4.2-1.3-6-4-6h-1Z"
  />
  <path fill="#2457D6" d="M21 10h7l2.8 27L34 18h6l3.2 19L46 10h7l-5 44h-8l-3-18-3 18h-8l-5-44Z" />
  <path
    fill="#2457D6"
    fill-rule="evenodd"
    d="M51 10h9c7.9 0 11 4.3 11 12.5S67.9 35 60 35h-1v19h-8V10Zm8 9v7h1c2.7 0 4-1 4-3.5S62.7 19 60 19h-1Z"
  />
  <rect width="5" height="7" x="59" y="19" fill="#2BC7B5" rx="2" />
</svg>
